<svg width="58" height="77" viewBox="0 0 58 77" fill="none" xmlns="http://www.w3.org/2000/svg">
<g clip-path="url(#clip0_8_49)">
<path d="M41.9503 47.0572C43.4305 46.0496 45.4847 45.1773 45.4847 45.1773C45.4847 45.1773 39.6394 46.2301 33.8243 46.7113C26.7102 47.2979 19.0675 47.4182 15.231 46.9068C6.15344 45.7037 20.2154 42.3801 20.2154 42.3801C20.2154 42.3801 14.7628 42.0191 8.04146 45.2375C0.111771 49.0574 27.6769 50.802 41.9503 47.0572ZM29.0514 42.2297C26.1816 35.808 16.4998 30.1684 29.0514 20.3027C44.7083 8.00078 36.679 0 36.679 0C39.9264 12.708 25.2602 16.558 19.9586 24.4535C16.3488 29.8525 21.7258 35.6426 29.0514 42.2297ZM46.3607 15.7309C46.3758 15.7309 19.8982 22.318 32.5404 36.8156C36.2711 41.0867 31.5586 44.9367 31.5586 44.9367C31.5586 44.9367 41.029 40.0641 36.679 33.9732C32.6159 28.2885 29.5045 25.4611 46.3607 15.7309ZM45.4394 56.4115C45.3568 56.5548 45.2552 56.6864 45.1373 56.8025C64.5159 51.7344 57.3868 38.9211 48.1279 42.1695C47.6279 42.3525 47.1958 42.683 46.8894 43.117C47.43 42.9222 47.9857 42.7713 48.5508 42.6658C53.2331 41.6883 59.9545 48.907 45.4394 56.4115ZM52.5625 65.7809C52.5625 65.7809 54.7526 67.5705 50.1609 68.9691C41.4156 71.601 13.7901 72.398 6.11719 69.0744C3.35313 67.8863 8.53385 66.217 10.1651 65.8711C11.8568 65.5102 12.8385 65.5703 12.8385 65.5703C9.7724 63.4197 -6.99323 69.7963 4.31979 71.616C35.1685 76.609 60.5677 69.3752 52.5625 65.7809ZM18.7956 59.5547C6.90865 62.8633 26.0305 69.691 41.1649 63.2393C39.6889 62.6683 38.264 61.974 36.9055 61.1639C30.154 62.4422 27.0274 62.5324 20.8951 61.8406C15.8352 61.2691 18.7956 59.5547 18.7956 59.5547ZM45.9529 74.1727C34.0659 76.3985 19.3998 76.1428 10.7149 74.7141C10.7149 74.699 12.4972 76.1729 21.6503 76.7594C35.5764 77.6467 56.9639 76.2631 57.4623 69.7061C57.4623 69.7061 56.4956 72.1875 45.9529 74.1727ZM39.3675 53.0879C30.4258 54.8023 25.2451 54.7572 18.705 54.0805C13.6451 53.5541 16.9529 51.1178 16.9529 51.1178C3.8425 55.449 24.2331 60.3518 42.5545 55.0129C41.3704 54.5966 40.2854 53.9412 39.3675 53.0879Z" fill="#DA1616"/>
</g>
<defs>
<clipPath id="clip0_8_49">
<rect width="58" height="77" fill="white"/>
</clipPath>
</defs>
</svg>
