<svg width="84" height="75" viewBox="0 0 84 75" fill="none" xmlns="http://www.w3.org/2000/svg">
<path d="M48.6354 29.502C48.6354 26.2646 46.3604 24.4775 42.3646 24.4775H35.0146V34.9072H41.2125C45.9958 34.8926 48.6354 32.959 48.6354 29.502ZM75.3958 27.627C74.0104 23.1006 73.8063 17.5488 73.9667 13.2568C74.1271 8.78906 70.6563 4.6875 65.9896 4.6875H18.0396C13.3583 4.6875 9.90209 8.80371 10.0625 13.2568C10.2083 17.5488 10.0188 23.1006 8.63334 27.627C7.23334 32.168 4.88542 35.0391 1.02084 35.4053V39.5801C4.87084 39.9463 7.23334 42.8174 8.63334 47.3584C10.0188 51.8848 10.2229 57.4365 10.0625 61.7285C9.90209 66.1963 13.3729 70.2979 18.0396 70.2979H65.975C70.6563 70.2979 74.1125 66.1816 73.9521 61.7285C73.8063 57.4365 73.9958 51.8848 75.3813 47.3584C76.7813 42.8174 79.1292 39.9463 82.9792 39.5801V35.4053C79.1438 35.0391 76.7813 32.168 75.3958 27.627ZM43.7792 54.9463H29.5021V20.0391H43.7063C50.0208 20.0391 54.1625 23.4668 54.1625 28.7402C54.1625 32.4463 51.3771 35.7568 47.8188 36.3281V36.5186C52.6604 37.0459 55.9125 40.415 55.9125 45.0586C55.9125 51.2256 51.3479 54.9463 43.7792 54.9463ZM42.3208 39.0234H35.0146V50.5078H42.6417C47.6292 50.5078 50.2688 48.501 50.2688 44.7217C50.2688 40.957 47.5563 39.0234 42.3208 39.0234Z" fill="#5F16A8"/>
</svg>
