<svg width="37" height="37" viewBox="0 0 37 37" fill="none" xmlns="http://www.w3.org/2000/svg">
    <path
        d="M18.5 0C8.288 0 0 8.288 0 18.5C0 28.712 8.288 37 18.5 37C28.712 37 37 28.712 37 18.5C37 8.288 28.712 0 18.5 0ZM12.0805 21.2195C12.617 21.756 12.617 22.644 12.0805 23.1805C11.803 23.458 11.4515 23.5875 11.1 23.5875C10.7485 23.5875 10.397 23.458 10.1195 23.1805L6.4195 19.4805C5.883 18.944 5.883 18.056 6.4195 17.5195L10.1195 13.8195C10.656 13.283 11.544 13.283 12.0805 13.8195C12.617 14.356 12.617 15.244 12.0805 15.7805L9.361 18.5L12.0805 21.2195ZM21.6265 14.726L17.9265 23.3655C17.7045 23.8835 17.1865 24.198 16.65 24.198C16.465 24.198 16.28 24.161 16.1135 24.087C15.4105 23.791 15.0775 22.977 15.392 22.2555L19.092 13.616C19.388 12.913 20.202 12.58 20.905 12.8945C21.608 13.209 21.9225 14.023 21.6265 14.726ZM30.5805 19.4805L26.8805 23.1805C26.603 23.458 26.2515 23.5875 25.9 23.5875C25.5485 23.5875 25.197 23.458 24.9195 23.1805C24.383 22.644 24.383 21.756 24.9195 21.2195L27.639 18.5L24.9195 15.7805C24.383 15.244 24.383 14.356 24.9195 13.8195C25.456 13.283 26.344 13.283 26.8805 13.8195L30.5805 17.5195C31.117 18.056 31.117 18.944 30.5805 19.4805Z"
        fill="#292D32" />
</svg>