<svg width="69" height="79" viewBox="0 0 69 79" fill="none" xmlns="http://www.w3.org/2000/svg">
<path d="M61.6071 4.9375H7.39286C3.31138 4.9375 0 8.25488 0 12.3438V66.6562C0 70.7451 3.31138 74.0625 7.39286 74.0625H61.6071C65.6886 74.0625 69 70.7451 69 66.6562V12.3438C69 8.25488 65.6886 4.9375 61.6071 4.9375ZM37.5496 58.8488C37.5496 65.5762 33.6067 68.6467 27.8618 68.6467C22.6714 68.6467 19.6681 65.9619 18.1279 62.7062L23.4107 59.5123C24.4272 61.3176 25.3513 62.8451 27.5846 62.8451C29.71 62.8451 31.0654 62.0119 31.0654 58.7562V36.6764H37.5496V58.8488ZM52.8897 68.6467C46.8676 68.6467 42.971 65.7768 41.0766 62.0119L46.3594 58.9568C47.7455 61.225 49.5629 62.9068 52.7511 62.9068C55.431 62.9068 57.156 61.5645 57.156 59.6975C57.156 57.4756 55.4002 56.6887 52.4277 55.3771L50.8105 54.6828C46.1283 52.6924 43.0326 50.1773 43.0326 44.885C43.0326 40.0092 46.7444 36.3061 52.5201 36.3061C56.6478 36.3061 59.6049 37.741 61.7304 41.5059L56.6786 44.7461C55.5696 42.7557 54.3683 41.9688 52.5047 41.9688C50.6103 41.9688 49.4089 43.1723 49.4089 44.7461C49.4089 46.6902 50.6103 47.4771 53.398 48.6961L55.0152 49.3904C60.529 51.7512 63.6248 54.1736 63.6248 59.6049C63.6248 65.4373 59.035 68.6467 52.8897 68.6467Z" fill="#F8C100"/>
</svg>
